<?xml version="1.0" encoding="utf-8"?>
<!-- Generator: Adobe Illustrator 25.2.0, SVG Export Plug-In . SVG Version: 6.00 Build 0)  -->
<svg version="1.1" id="Layer_1" xmlns="http://www.w3.org/2000/svg" xmlns:xlink="http://www.w3.org/1999/xlink" x="0px" y="0px"
	 viewBox="0 0 169.4 113.4" style="enable-background:new 0 0 169.4 113.4;" xml:space="preserve">
<style type="text/css">
	.st0{fill:#FFCC00;}
	.st1{fill:#3C3C3B;}
</style>
<g>
	<g>
		<path class="st0" d="M60.4,0H17.3c-2.7,0-4.9,2.2-4.9,4.9s2.2,4.9,4.9,4.9h31.2L28.2,30.1c-1.8,1.8-1.7,4.9,0.2,6.8
			c1.2,1.2,2.7,1.6,4.2,1.5c12,0.3,21.8,10.1,21.8,22.2c0,12.3-10,22.3-22.3,22.3S9.9,72.9,9.9,60.6c0-2.7-2.2-4.9-4.9-4.9
			c-2.7,0-4.9,2.2-4.9,4.9c0,17.7,14.4,32.1,32.1,32.1s32.1-14.4,32.1-32.1c0-14.2-9.3-26.3-22-30.5L63.9,8.4L64,8.3
			c0.9-0.9,1.3-2.1,1.3-3.3c0,0,0,0,0-0.1C65.3,2.2,63.1,0,60.4,0z"/>
		<path class="st0" d="M129.4,84.4l-21.9-21.9c12.8-4.2,22.1-16.3,22.1-30.5v0C129.6,14.4,115.2,0,97.5,0v0
			C79.8,0,65.4,14.4,65.4,32.1c0,2.7,2.2,4.9,4.9,4.9c2.7,0,4.9-2.2,4.9-4.9c0-12.3,10-22.2,22.2-22.2v0c12.3,0,22.3,10,22.3,22.2h0
			c0,12.2-9.8,22.1-21.9,22.2c-1.4-0.1-2.9,0.3-4,1.5c-1.9,1.9-2,5-0.2,6.8l28.8,28.8c1.8,1.8,4.9,1.7,6.8-0.2
			C131.1,89.3,131.2,86.3,129.4,84.4z"/>
	</g>
	<g>
		<polygon class="st1" points="92.4,110.8 92.4,110.8 90.5,102.9 87.5,102.9 87.5,113.1 89.4,113.1 89.4,104.6 89.4,104.6 
			91.4,113.1 93.2,113.1 95.3,104.6 95.3,104.6 95.3,113.1 97.1,113.1 97.1,102.9 94.3,102.9 		"/>
		<path class="st1" d="M72.9,105.7c0-1.4-0.9-2.8-3-2.8h-4.5v10.2h1v-4.5h2.3l3.3,4.5h1.2l-3.3-4.6
			C71.7,108.4,72.9,107.5,72.9,105.7z M66.3,107.7v-3.9h3.2c1.7,0,2.4,0.8,2.4,2c0,0.9-0.5,2-2.5,2H66.3z"/>
		<polygon class="st1" points="75.5,108.3 80.6,108.3 80.6,107.4 75.5,107.4 75.5,103.8 81.2,103.8 81.2,102.9 74.5,102.9 
			74.5,113.1 81.5,113.1 81.5,112.2 75.5,112.2 		"/>
		<path class="st1" d="M101.9,102.9l-3.4,10.2h2l0.6-2h3.9l0.6,2h2l-3.4-10.2H101.9z M101.6,109.4l1.4-4.7h0l1.4,4.7H101.6z"/>
		<rect x="83.4" y="102.9" class="st1" width="1.9" height="10.2"/>
		<path class="st1" d="M159.8,106c0-1.8-1.3-3.1-3.5-3.1H152v10.2h1.9v-3.8h1.8l2,3.8h2.2l-2.3-4.1
			C158.2,108.8,159.8,108.3,159.8,106z M156.1,107.7H154v-3.1h1.8c1.3,0,2,0.6,2,1.5C157.7,107.1,157,107.7,156.1,107.7z"/>
		<polygon class="st1" points="144.9,108.7 149.8,108.7 149.8,107 144.9,107 144.9,104.7 150.2,104.7 150.2,102.9 143,102.9 
			143,113.1 150.6,113.1 150.6,111.3 144.9,111.3 		"/>
		<path class="st1" d="M166.4,107.1l-1.3-0.3c-1.2-0.3-2.1-0.5-2.1-1.3c0-0.7,0.8-1.1,1.9-1.1c1.3,0,2.2,0.5,2.7,1.5l1.6-1.2
			c-1.1-1.4-2.5-2.1-4.3-2.1c-1.9,0-4,1-4,3.2c0,1.9,1.4,2.5,3.1,2.9l1.1,0.3c1.4,0.3,2.1,0.5,2.1,1.4c0,1-1.2,1.3-2.2,1.3
			c-1.3,0-2.4-0.5-3.1-1.6l-1.6,1.2c1,1.4,2.7,2.2,4.4,2.2c2.1,0,4.5-0.9,4.5-3.4C169.4,108.1,168,107.5,166.4,107.1z"/>
		<polygon class="st1" points="135.7,108.7 140.6,108.7 140.6,107 135.7,107 135.7,104.7 141.1,104.7 141.1,102.9 133.8,102.9 
			133.8,113.1 141.4,113.1 141.4,111.3 135.7,111.3 		"/>
		<rect x="119.6" y="102.9" class="st1" width="1.9" height="10.2"/>
		<polygon class="st1" points="130,110.2 130,110.2 125.7,102.9 123.9,102.9 123.9,113.1 125.6,113.1 125.6,105.8 125.7,105.8 
			130,113.1 131.7,113.1 131.7,102.9 130,102.9 		"/>
		<path class="st1" d="M113.1,104.4c1.7,0,2.3,1.1,2.6,2l1.8-0.7c-0.8-2-2.3-3-4.4-3c-3.1,0-4.9,2.5-4.9,5.4c0,2.9,1.6,5.4,4.9,5.4
			c0.9,0,2-0.4,2.7-1.1v0.9h1.7v-5.6h-4.3v1.7h2.5c0,1.4-1.2,2.4-2.6,2.4c-2,0-2.9-1.8-2.9-3.6C110.2,106.2,111.1,104.4,113.1,104.4
			z"/>
	</g>
</g>
</svg>
