<?xml version="1.0" encoding="UTF-8"?>
<svg xmlns="http://www.w3.org/2000/svg" id="Layer_1" data-name="Layer 1" viewBox="0 0 712.83 360.41">
  <defs>
    <style>
      .cls-1 {
        fill: #f16932;
      }

      .cls-1, .cls-2, .cls-3 {
        stroke-width: 0px;
      }

      .cls-2 {
        fill: #fcbe40;
      }

      .cls-3 {
        fill: #201b51;
      }
    </style>
  </defs>
  <g>
    <path class="cls-3" d="M183.36,89.35c0-24.9,18.77-46.1,49.03-46.1,11.49,0,19.92,3.32,27.32,8.43,3.19,2.17,3.58,5.36,1.28,8.55l-3.19,3.96c-2.3,3.19-5.11,3.19-8.55,1.15-5.11-2.94-11.24-4.47-16.86-4.47-17.88,0-28.73,12.77-28.73,28.48s10.85,28.48,28.73,28.48c5.62,0,11.75-1.53,16.86-4.47,3.45-2.04,6.26-2.04,8.55,1.15l3.19,3.96c2.3,3.32,2.17,6.13-.64,8.17-7.53,5.36-16.09,8.81-27.96,8.81-30.26,0-49.03-21.2-49.03-46.1Z"></path>
    <path class="cls-3" d="M271.6,127.92v-53.38c0-3.96,2.17-6.13,6.13-6.13h7.02c3.96,0,6.13,2.17,6.13,6.13v8.17c2.17-12,11.36-15.7,16.98-15.7l2.17.13c3.06.25,3.7,2.68,3.7,5.24v8.94c0,3.58-1.79,5.11-4.47,4.73-1.15-.13-2.17-.25-3.19-.25-7.66,0-14.68,4.98-14.68,21.45v20.69c0,3.96-2.17,6.13-6.13,6.13h-7.53c-3.96,0-6.13-2.17-6.13-6.13Z"></path>
    <path class="cls-3" d="M315.15,101.23c0-19.28,13.15-34.22,31.54-34.22,8.68,0,16.34,3.32,21.07,10.73v-3.19c0-3.96,2.17-6.13,6.13-6.13h7.53c3.96,0,6.13,2.17,6.13,6.13v53.38c0,3.96-2.17,6.13-6.13,6.13h-7.53c-3.96,0-6.13-2.17-6.13-6.13v-3.06c-4.72,7.28-12.38,10.6-21.07,10.6-18.39,0-31.54-14.81-31.54-34.22ZM368.01,101.23c0-10.47-6.64-18.39-16.73-18.39s-16.34,8.3-16.34,18.39,6,18.39,16.34,18.39,16.73-7.92,16.73-18.39Z"></path>
    <path class="cls-3" d="M400.2,127.92v-53.38c0-3.96,2.17-6.13,6.13-6.13h7.53c3.96,0,6.13,2.17,6.13,6.13v4.34c3.19-7.53,10.22-11.87,19.92-11.87,17.62,0,24.01,13.79,24.01,29.24v31.67c0,3.96-2.3,6.13-6.26,6.13h-7.41c-3.96,0-6.13-2.17-6.13-6.13v-30.26c0-9.19-3.58-14.56-10.34-14.56s-13.79,5.24-13.79,17.49v27.33c0,3.96-2.17,6.13-6.13,6.13h-7.53c-3.96,0-6.13-2.17-6.13-6.13Z"></path>
    <path class="cls-3" d="M479.51,127.92v-44.82h-5.87c-2.04,0-3.19-1.15-3.19-3.19v-7.41c0-2.04,1.15-3.19,3.19-3.19h5.87v-4.21c0-20.05,13.28-24.77,24.26-24.77s21.96,5.36,21.96,17.49c0,.64-.13,1.4-.25,2.04-.26,1.53-1.4,2.43-3.07,2.43h-9.19c-1.66,0-2.68-1.02-2.68-2.3v-.77c0-2.43-2.43-4.21-5.49-4.21-4.09,0-6.26,2.81-6.26,7.53v6.77h11.49c2.04,0,3.19,1.15,3.19,3.19v7.41c0,2.04-1.15,3.19-3.19,3.19h-11.11v44.82c0,3.96-2.3,6.13-6.26,6.13h-7.28c-3.96,0-6.13-2.17-6.13-6.13Z"></path>
    <path class="cls-3" d="M515.65,101.23c0-18.9,15.58-34.22,36.39-34.22s36.39,15.32,36.39,34.22-15.58,34.22-36.39,34.22-36.39-15.2-36.39-34.22ZM569.67,101.36c0-10.34-7.79-18.26-17.62-18.26s-17.62,7.92-17.62,18.26,7.66,18.13,17.62,18.13,17.62-7.92,17.62-18.13Z"></path>
    <path class="cls-3" d="M596.87,127.92v-53.38c0-3.96,2.17-6.13,6.13-6.13h7.02c3.96,0,6.13,2.17,6.13,6.13v8.17c2.17-12,11.36-15.7,16.98-15.7l2.17.13c3.06.25,3.7,2.68,3.7,5.24v8.94c0,3.58-1.79,5.11-4.47,4.73-1.15-.13-2.17-.25-3.19-.25-7.66,0-14.68,4.98-14.68,21.45v20.69c0,3.96-2.17,6.13-6.13,6.13h-7.53c-3.96,0-6.13-2.17-6.13-6.13Z"></path>
    <path class="cls-3" d="M640.42,101.23c0-19.28,13.15-34.22,31.67-34.22,8.56,0,16.22,3.32,20.94,10.73v-29.88c0-3.96,2.3-6.13,6.26-6.13h7.41c3.96,0,6.13,2.17,6.13,6.13v80.06c0,3.96-2.17,6.13-6.13,6.13h-7.41c-3.96,0-6.26-2.17-6.26-6.13v-3.06c-4.72,7.28-12.38,10.6-20.94,10.6-18.52,0-31.67-14.81-31.67-34.22ZM693.42,101.23c-.13-10.47-6.77-18.39-16.86-18.39s-16.34,8.3-16.34,18.39,6.13,18.39,16.34,18.39,16.73-7.92,16.86-18.39Z"></path>
  </g>
  <path class="cls-3" d="M191.95,234.42v-77.13c0-3.96,2.3-6.13,6.26-6.13h7.92c3.96,0,6.13,2.17,6.13,6.13v32.31h33.46v-32.31c0-3.96,2.17-6.13,6.13-6.13h7.92c3.96,0,6.13,2.17,6.13,6.13v77.13c0,3.96-2.17,6.13-6.13,6.13h-7.92c-3.96,0-6.13-2.17-6.13-6.13v-28.35h-33.46v28.35c0,3.96-2.17,6.13-6.13,6.13h-7.92c-3.96,0-6.26-2.17-6.26-6.13Z"></path>
  <path class="cls-3" d="M274.39,207.74c0-18.9,15.58-34.22,36.39-34.22s36.39,15.32,36.39,34.22-15.58,34.22-36.39,34.22-36.39-15.2-36.39-34.22ZM328.4,207.86c0-10.34-7.79-18.26-17.62-18.26s-17.62,7.92-17.62,18.26,7.66,18.13,17.62,18.13,17.62-7.92,17.62-18.13Z"></path>
  <path class="cls-3" d="M353.26,228.81c-1.92-3.83.13-6.64,4.09-7.66l3.96-.89c3.45-.89,4.98.76,7.66,3.45,2.3,2.55,5.75,3.83,9.83,3.83,4.98,0,8.43-2.3,8.43-5.75,0-2.81-1.92-4.21-6.13-5.75l-8.04-2.81c-6.77-2.17-18.52-7.15-18.52-19.02s10.21-20.69,24.39-20.69c8.43,0,16.09,2.68,20.94,9.96,2.56,3.7.64,7.02-3.57,8.05l-3.58.89c-3.32.89-5.11-.26-7.41-2.43-1.79-1.79-4.09-2.43-6.38-2.43-4.09,0-6.64,2.55-6.64,5.62,0,2.81,2.55,4.21,6,5.37l8.17,3.06c13.54,4.47,18.39,11.75,18.64,19.79,0,13.79-12.26,20.56-26.43,20.56-11.62,0-21.07-4.34-25.41-13.15Z"></path>
  <path class="cls-3" d="M413.91,263.03v-81.98c0-3.96,2.17-6.13,6.13-6.13h7.53c3.96,0,6.13,2.17,6.13,6.13v3.07c4.73-7.28,12.39-10.6,21.07-10.6,18.39,0,31.54,14.94,31.54,34.22s-13.15,34.22-31.54,34.22c-8.68,0-16.34-3.32-21.07-10.73v31.8c0,3.96-2.17,6.13-6.13,6.13h-7.53c-3.96,0-6.13-2.17-6.13-6.13ZM466.52,207.74c0-10.09-6-18.39-16.34-18.39s-16.73,7.92-16.73,18.39,6.64,18.39,16.73,18.39,16.34-8.17,16.34-18.39Z"></path>
  <path class="cls-3" d="M493.21,156.91c0-5.87,4.21-10.34,11.88-10.34s11.88,4.47,11.88,10.34-4.6,10.21-11.88,10.21-11.88-4.47-11.88-10.21ZM495.26,234.42v-53.38c0-3.96,2.17-6.13,6.13-6.13h7.41c3.96,0,6.26,2.17,6.26,6.13v53.38c0,3.96-2.3,6.13-6.26,6.13h-7.41c-3.96,0-6.13-2.17-6.13-6.13Z"></path>
  <path class="cls-3" d="M523.74,208.12c0-19.15,14.69-34.6,37.8-34.6,6.26,0,13.79,1.4,20.81,5.49,3.45,2.17,3.58,5.49,1.15,8.68l-2.04,2.55c-2.43,3.07-4.98,3.19-8.68,1.53-4.21-2.04-8.3-2.3-10.09-2.3-11.11,0-19.15,7.53-19.15,18.26s8.05,18.26,19.15,18.26c1.79,0,5.87-.26,10.09-2.3,3.7-1.66,6.38-1.53,8.68,1.53l2.04,2.55c2.43,3.19,1.92,6.9-2.3,9.2-6.51,3.7-13.66,4.98-19.66,4.98-22.86,0-37.8-15.07-37.8-33.84Z"></path>
  <path class="cls-3" d="M588.87,207.99c0-18.51,13.92-34.48,36.01-34.48,18.64,0,33.96,11.24,34.86,32.18.13,3.7-2.43,5.37-6.26,5.37h-45.71c-.26,7.79,7.53,15.32,20.18,15.32,4.73,0,9.58-1.15,14.56-3.96,3.45-1.92,6.26-1.66,8.68,1.28l1.4,1.79c2.56,3.06,2.3,6.51-1.15,9.07-7.53,5.49-16.34,7.41-24.77,7.41-23.5,0-37.8-15.2-37.8-33.97ZM641.22,200.08c-1.79-8.81-9.32-11.62-16.09-11.62s-14.68,3.06-16.86,11.62h32.95Z"></path>
  <g>
    <path class="cls-3" d="M203.07,281.69h-11.3v-3.06h26.29v3.06h-11.34v27.26h-3.65v-27.26Z"></path>
    <path class="cls-3" d="M226.08,309.46c-6.03,0-10.28-4.2-10.28-11.08s4.37-11.3,10.06-11.3c6.33,0,9.17,5.05,9.17,10.53v1.4h-15.8c.17,4.93,2.76,7.64,6.84,7.64,2.89,0,4.63-1.4,5.52-3.99h3.31c-.98,4.54-4.67,6.79-8.83,6.79ZM219.38,296.47h12.23c-.08-3.7-1.91-6.54-5.73-6.54-3.35,0-5.9,2.17-6.5,6.54Z"></path>
    <path class="cls-3" d="M254.44,294.51l-4.63,4.71v9.72h-3.65v-30.32h3.65v16.48l15.97-16.48h4.42l-13.21,13.33,14.01,16.99h-4.42l-12.15-14.44Z"></path>
    <path class="cls-3" d="M286.41,305.34c-.94,2.51-3.87,4.08-7.43,4.08s-6.92-2.17-6.92-6.11,3.06-5.9,7.39-6.41l6.88-.89v-1.23c0-3.4-2.08-4.84-5.01-4.84s-4.63,1.49-4.88,3.95h-3.4c.42-4.33,3.82-6.79,8.37-6.79,5.18,0,8.41,2.46,8.41,7.6v9.81c0,1.57.08,3.06.51,4.46h-3.52c-.26-1.19-.38-2.59-.38-3.61ZM286.33,300.54v-1.91l-5.82.64c-2.68.38-4.88,1.06-4.88,3.95,0,2,1.4,3.52,4.08,3.52,3.31,0,6.62-2.08,6.62-6.2Z"></path>
    <path class="cls-3" d="M305.39,287.08c4.8,0,7.64,3.02,7.64,8.11v13.76h-3.52v-12.99c0-3.95-1.74-5.99-5.1-5.99s-5.86,2.08-5.86,7.22v11.76h-3.52v-31.26h3.52v13.8c1.02-2.72,3.57-4.42,6.84-4.42Z"></path>
    <path class="cls-3" d="M332.39,308.95v-3.86c-1.02,2.68-3.57,4.37-6.8,4.37-4.84,0-7.56-2.93-7.56-8.11v-13.76h3.57v13.08c0,3.95,1.66,6.03,5.01,6.03s5.65-2.21,5.65-7.35v-11.76h3.57v21.36h-3.44Z"></path>
    <path class="cls-3" d="M352.13,296.76v12.19h-3.61v-30.32h11.21c6.75,0,10.66,3.1,10.66,9.04s-3.91,9.09-10.62,9.09h-7.64ZM359.64,293.71c4.59,0,7.09-1.91,7.09-6.03s-2.51-5.99-7.09-5.99h-7.52v12.02h7.52Z"></path>
    <path class="cls-3" d="M386.14,305.34c-.94,2.51-3.87,4.08-7.43,4.08s-6.92-2.17-6.92-6.11,3.06-5.9,7.39-6.41l6.88-.89v-1.23c0-3.4-2.08-4.84-5.01-4.84s-4.63,1.49-4.88,3.95h-3.4c.42-4.33,3.82-6.79,8.37-6.79,5.18,0,8.41,2.46,8.41,7.6v9.81c0,1.57.08,3.06.51,4.46h-3.52c-.26-1.19-.38-2.59-.38-3.61ZM386.05,300.54v-1.91l-5.82.64c-2.68.38-4.88,1.06-4.88,3.95,0,2,1.4,3.52,4.08,3.52,3.31,0,6.62-2.08,6.62-6.2Z"></path>
    <path class="cls-3" d="M394.49,278.84h3.99v4.29h-3.99v-4.29ZM394.75,287.59h3.52v21.36h-3.52v-21.36Z"></path>
    <path class="cls-3" d="M415.55,290.52c-.51-.13-1.27-.17-1.83-.17-3.4,0-6.5,2.68-6.5,8.07v10.53h-3.52v-21.36h3.4v5.05c.94-3.52,3.65-5.52,6.8-5.52.55,0,1.15.04,1.66.17v3.23Z"></path>
    <path class="cls-3" d="M432.07,308.95v-3.86c-1.02,2.68-3.57,4.37-6.8,4.37-4.84,0-7.56-2.93-7.56-8.11v-13.76h3.57v13.08c0,3.95,1.66,6.03,5.01,6.03s5.65-2.21,5.65-7.35v-11.76h3.57v21.36h-3.44Z"></path>
    <path class="cls-3" d="M452.79,290.52c-.51-.13-1.27-.17-1.83-.17-3.4,0-6.5,2.68-6.5,8.07v10.53h-3.52v-21.36h3.4v5.05c.94-3.52,3.65-5.52,6.8-5.52.55,0,1.15.04,1.66.17v3.23Z"></path>
    <path class="cls-3" d="M454.91,278.84h3.99v4.29h-3.99v-4.29ZM455.16,287.59h3.52v21.36h-3.52v-21.36Z"></path>
    <path class="cls-3" d="M479.79,309.46c-5.9,0-10.15-4.29-10.15-11.17s4.25-11.21,10.15-11.21,10.15,4.33,10.15,11.21-4.25,11.17-10.15,11.17ZM479.79,306.62c4.16,0,6.67-3.19,6.67-8.32s-2.51-8.37-6.67-8.37-6.67,3.23-6.67,8.37,2.51,8.32,6.67,8.32Z"></path>
    <path class="cls-3" d="M512.81,306.36c5.1,0,7.3-2.85,7.98-6.24h3.57c-.98,5.52-4.93,9.34-11.55,9.34-7.81,0-13.59-6.16-13.59-15.71s5.78-15.63,13.59-15.63c6.63,0,10.57,3.82,11.55,9.34h-3.57c-.68-3.4-2.89-6.24-7.98-6.24-6.24,0-9.85,4.97-9.85,12.53s3.61,12.61,9.85,12.61Z"></path>
    <path class="cls-3" d="M539.73,290.52c-.51-.13-1.27-.17-1.83-.17-3.4,0-6.5,2.68-6.5,8.07v10.53h-3.52v-21.36h3.4v5.05c.94-3.52,3.65-5.52,6.8-5.52.55,0,1.15.04,1.66.17v3.23Z"></path>
    <path class="cls-3" d="M554.8,305.34c-.94,2.51-3.87,4.08-7.43,4.08s-6.92-2.17-6.92-6.11,3.06-5.9,7.39-6.41l6.88-.89v-1.23c0-3.4-2.08-4.84-5.01-4.84s-4.63,1.49-4.88,3.95h-3.4c.42-4.33,3.82-6.79,8.37-6.79,5.18,0,8.41,2.46,8.41,7.6v9.81c0,1.57.08,3.06.51,4.46h-3.52c-.26-1.19-.38-2.59-.38-3.61ZM554.71,300.54v-1.91l-5.82.64c-2.68.38-4.88,1.06-4.88,3.95,0,2,1.4,3.52,4.08,3.52,3.31,0,6.62-2.08,6.62-6.2Z"></path>
    <path class="cls-3" d="M566.81,291.5c1.02-2.63,3.7-4.42,6.97-4.42,4.8,0,7.64,3.02,7.64,8.11v13.76h-3.52v-12.99c0-3.95-1.74-5.99-5.1-5.99s-5.86,2.08-5.86,7.22v11.76h-3.52v-21.36h3.4v3.91Z"></path>
    <path class="cls-3" d="M584.09,290.27v-2.67h3.1v-3.99c0-3.99,2.55-6.03,6.2-6.03.77,0,1.74.09,2.38.21v2.8c-.55-.09-1.4-.13-2.17-.13-1.53,0-2.93.77-2.93,3.19v3.95h4.59v2.67h-4.59v18.69h-3.48v-18.69h-3.1Z"></path>
    <path class="cls-3" d="M606.3,309.46c-5.9,0-10.15-4.29-10.15-11.17s4.25-11.21,10.15-11.21,10.15,4.33,10.15,11.21-4.25,11.17-10.15,11.17ZM606.3,306.62c4.16,0,6.67-3.19,6.67-8.32s-2.51-8.37-6.67-8.37-6.67,3.23-6.67,8.37,2.51,8.32,6.67,8.32Z"></path>
    <path class="cls-3" d="M632.15,290.52c-.51-.13-1.27-.17-1.83-.17-3.4,0-6.5,2.68-6.5,8.07v10.53h-3.52v-21.36h3.4v5.05c.94-3.52,3.65-5.52,6.8-5.52.55,0,1.15.04,1.66.17v3.23Z"></path>
    <path class="cls-3" d="M649.26,305.21c-1.06,2.17-3.7,4.25-7.22,4.25-5.44,0-9.51-4.42-9.51-11.17s4.08-11.21,9.51-11.21c3.7,0,6.11,2.12,7.09,4.29v-13.67h3.52v31.26h-3.4v-3.74ZM649.3,297.95c0-4.84-2.38-8.11-6.54-8.11s-6.67,3.44-6.67,8.45,2.46,8.41,6.67,8.41,6.54-3.31,6.54-8.15v-.59Z"></path>
    <path class="cls-3" d="M207.23,349.83l-2.76,2.67v7.39h-3.52v-31.26h3.52v20.13l10.53-10.23h4.2l-9.43,9.04,9.81,12.32h-4.25l-8.11-10.06Z"></path>
    <path class="cls-3" d="M222.26,329.79h3.99v4.29h-3.99v-4.29ZM222.51,338.54h3.52v21.36h-3.52v-21.36Z"></path>
    <path class="cls-3" d="M247.78,332.63h-11.3v-3.06h26.29v3.06h-11.34v27.26h-3.65v-27.26Z"></path>
    <path class="cls-3" d="M270.79,360.41c-6.03,0-10.28-4.2-10.28-11.08s4.37-11.3,10.06-11.3c6.33,0,9.17,5.05,9.17,10.53v1.4h-15.8c.17,4.93,2.76,7.64,6.84,7.64,2.89,0,4.63-1.4,5.52-3.99h3.31c-.98,4.54-4.67,6.79-8.83,6.79ZM264.08,347.41h12.23c-.08-3.7-1.91-6.54-5.73-6.54-3.35,0-5.9,2.17-6.5,6.54Z"></path>
    <path class="cls-3" d="M304.28,359.9l-9.85-26.58h-.08v26.58h-3.48v-30.32h5.65l9.34,25.56h.08l9.34-25.56h5.44v30.32h-3.52v-26.58h-.09l-9.85,26.58h-2.97Z"></path>
    <path class="cls-3" d="M339.01,356.29c-.94,2.51-3.87,4.08-7.43,4.08s-6.92-2.17-6.92-6.11,3.06-5.9,7.39-6.41l6.88-.89v-1.23c0-3.4-2.08-4.84-5.01-4.84s-4.63,1.49-4.88,3.95h-3.4c.42-4.33,3.82-6.79,8.37-6.79,5.18,0,8.41,2.46,8.41,7.6v9.81c0,1.57.08,3.06.51,4.46h-3.52c-.26-1.19-.38-2.59-.38-3.61ZM338.92,351.49v-1.91l-5.82.64c-2.68.38-4.88,1.06-4.88,3.95,0,2,1.4,3.52,4.08,3.52,3.31,0,6.62-2.08,6.62-6.2Z"></path>
    <path class="cls-3" d="M357.56,359.64c-1.57.47-2.8.59-3.74.59-3.91,0-5.9-1.87-5.9-5.82v-13.21h-3.14v-2.67h3.14v-5.44h3.48v5.44h5.61v2.67h-5.65v13.04c0,2.25,1.15,3.02,3.1,3.02.81,0,1.74-.09,3.1-.51v2.89Z"></path>
    <path class="cls-3" d="M373.87,356.29c-.94,2.51-3.87,4.08-7.43,4.08s-6.92-2.17-6.92-6.11,3.06-5.9,7.39-6.41l6.88-.89v-1.23c0-3.4-2.08-4.84-5.01-4.84s-4.63,1.49-4.88,3.95h-3.4c.42-4.33,3.82-6.79,8.37-6.79,5.18,0,8.41,2.46,8.41,7.6v9.81c0,1.57.08,3.06.51,4.46h-3.52c-.26-1.19-.38-2.59-.38-3.61ZM373.78,351.49v-1.91l-5.82.64c-2.68.38-4.88,1.06-4.88,3.95,0,2,1.4,3.52,4.08,3.52,3.31,0,6.62-2.08,6.62-6.2Z"></path>
    <path class="cls-3" d="M396.62,359.9v-3.86c-1.02,2.68-3.57,4.37-6.8,4.37-4.84,0-7.56-2.93-7.56-8.11v-13.76h3.57v13.08c0,3.95,1.66,6.03,5.01,6.03s5.65-2.21,5.65-7.35v-11.76h3.57v21.36h-3.44Z"></path>
    <path class="cls-3" d="M405.4,346.43h11.76v3.1h-11.76v-3.1Z"></path>
    <path class="cls-3" d="M435.21,356.29c-.94,2.51-3.87,4.08-7.43,4.08s-6.92-2.17-6.92-6.11,3.06-5.9,7.39-6.41l6.88-.89v-1.23c0-3.4-2.08-4.84-5.01-4.84s-4.63,1.49-4.88,3.95h-3.4c.42-4.33,3.82-6.79,8.37-6.79,5.18,0,8.41,2.46,8.41,7.6v9.81c0,1.57.08,3.06.51,4.46h-3.52c-.26-1.19-.38-2.59-.38-3.61ZM435.12,351.49v-1.91l-5.82.64c-2.68.38-4.88,1.06-4.88,3.95,0,2,1.4,3.52,4.08,3.52,3.31,0,6.62-2.08,6.62-6.2Z"></path>
    <path class="cls-3" d="M443.74,346.43h11.76v3.1h-11.76v-3.1Z"></path>
    <path class="cls-3" d="M474.44,359.9l-9.85-26.58h-.08v26.58h-3.48v-30.32h5.65l9.34,25.56h.08l9.34-25.56h5.44v30.32h-3.52v-26.58h-.09l-9.85,26.58h-2.97Z"></path>
    <path class="cls-3" d="M509.16,356.29c-.94,2.51-3.87,4.08-7.43,4.08s-6.92-2.17-6.92-6.11,3.06-5.9,7.39-6.41l6.88-.89v-1.23c0-3.4-2.08-4.84-5.01-4.84s-4.63,1.49-4.88,3.95h-3.4c.42-4.33,3.82-6.79,8.37-6.79,5.18,0,8.41,2.46,8.41,7.6v9.81c0,1.57.08,3.06.51,4.46h-3.52c-.26-1.19-.38-2.59-.38-3.61ZM498.25,331.44h12.1v2.63h-12.1v-2.63ZM509.08,351.49v-1.91l-5.82.64c-2.68.38-4.88,1.06-4.88,3.95,0,2,1.4,3.52,4.08,3.52,3.31,0,6.62-2.08,6.62-6.2Z"></path>
    <path class="cls-3" d="M531.92,359.9v-3.86c-1.02,2.68-3.57,4.37-6.8,4.37-4.84,0-7.56-2.93-7.56-8.11v-13.76h3.57v13.08c0,3.95,1.66,6.03,5.01,6.03s5.65-2.21,5.65-7.35v-11.76h3.57v21.36h-3.44Z"></path>
    <path class="cls-3" d="M540.53,329.79h3.99v4.29h-3.99v-4.29ZM540.79,338.54h3.52v21.36h-3.52v-21.36Z"></path>
  </g>
  <g>
    <path class="cls-1" d="M32.15,116.45l-23.45-3.92c-28.62,96.84,21.48,145.97,34.49,158.23,1.39-11.29,4.18-35.06,6.15-59.29-5.3-9.25-9.8-20.16-12.78-33.07-5.04-21.82-7.1-39.94-4.41-61.95Z"></path>
    <path class="cls-1" d="M55.13,219.34c-1.04,11.66-2.08,24.23-3.13,33.62,6.37,5.54,15.51,5.54,15.51,5.54,0,0,2.27-11.08,4.48-21.19-5.64-4.92-11.59-10.6-16.86-17.97Z"></path>
    <path class="cls-1" d="M97.22,211.06c-4.67-5.71-19.62-23.37-29.48-52.3-5.6-16.45-9.02-25.37-8.9-37.74l-21.19-3.41c-1.85,15.52-1.7,33.05,4.35,59.28,11.19,48.52,45.98,67.42,59.53,73.18-1.4-6.58-3.3-18.71-4.31-39.02Z"></path>
    <path class="cls-1" d="M70.96,10.99c-20.1,15.06-32.55,42.56-36.86,61.92-3.62.28-7.17,1.44-10.37,3.45-5.87,3.67-9.6,9.62-11.14,16.75-.59,2.75-2.23,9.64-2.91,13.68l50.1,8.49c.31-2.37.81-5.9,1.57-10.36,2.09-12.38-5.15-23.83-14.36-29.09,1.46-14.41,7.77-33.93,15.98-45.84C84.55-1.29,103.18.99,103.18.99c0,0-11.36-5.63-32.23,10Z"></path>
    <path class="cls-2" d="M117.37,18.71c-22.96,9.67-34.13,38.48-37.58,56.02-7.34,2.11-11.3,7.54-14.15,14.72.09.32.17.64.25.97,1.57,4.72,2.15,9.95,1.22,15.48-.37,2.21-.68,4.18-.93,5.87l46.85,1.87c.02-2.89.1-7.54.35-12.45.66-12.9-9.27-23.73-20.71-26.63.65-11.37,5.03-27.81,12.05-41.43,4.99-9.64,14.61-14.97,12.67-14.4Z"></path>
    <path class="cls-2" d="M129.83,149.44c-9.3-13.13-13.34-20.46-16.01-30.53l-21.97-.86c2.2,14.62,3.52,23.62,13.33,44.73,4.51,9.71,10.47,15.24,17.39,19.98,18.89,12.94,38.72,7.38,50.79,6.6-19.28-10.71-25.07-13.86-43.53-39.93Z"></path>
    <g>
      <path class="cls-2" d="M119.27,187.59c-6.54-4.48-13.95-10.63-19.39-22.34-10.11-21.77-11.57-31.45-13.77-46.1l-.22-1.44-20.72-.83c-.21,1.83-.38,3.61-.5,5.37.1,9.84,3.61,17.22,7.34,30.96,5.63,20.77,24.08,47.27,29.22,53.53l.16.19c.3.31.47.47.48.49l.84.9v.24s.25.29.25.29l.1,1.92c.24,4.82.53,9.16.85,13.06,10.92,5.47,15.19,5.91,27.33,7.25l-4.76-39.34c-2.41-1.14-4.81-2.52-7.21-4.15Z"></path>
      <path class="cls-2" d="M151.67,197.04c-5.88,0-12.26-.66-18.77-2.76l2.87,26.1c.97.33,1.97.63,3.02.89,10.78,2.6,23.48-3.18,23.48-3.18l-6.77-21.15c-1.25.06-2.53.09-3.83.09Z"></path>
    </g>
  </g>
</svg>
