<svg xmlns="http://www.w3.org/2000/svg" viewBox="0 0 242.25 35.88"><title>Asset 7</title><g id="Layer_2" data-name="Layer 2"><g id="Layer_1-2" data-name="Layer 1"><path d="M8.43,9.47h7.28L13,22.91H24.78L27.44,9.47h7.28L27.8,44.08H20.52l3-14.8H11.7L8.79,44.08H1.51Z" transform="translate(-1.51 -8.83)" fill="#1d1d1b"/><path d="M37,31.55,31.45,9.47H39l1.47,8.31c.47,2.63.85,4.89,1.33,7.63H42c1.45-2.72,2.71-5.09,4.24-7.72l4.83-8.22h7.82L44.25,31.55,41.73,44.08H34.49Z" transform="translate(-1.51 -8.83)" fill="#1d1d1b"/><path d="M55.22,9.47H66.15C72.92,9.47,78,12,78,18.66c0,9.66-7.25,13.39-16,13.39H58l-2.38,12H48.29ZM62.81,26.3c5.14,0,8-2.26,8-6.57,0-3.12-2.11-4.51-5.79-4.51H61.3L59.15,26.3Z" transform="translate(-1.51 -8.83)" fill="#1d1d1b"/><path d="M78.74,9.47H99.26l-1.19,6.1H84.74l-1.47,7.51H94.58l-1.19,6.11H82.1L80.27,38H94.05l-1.2,6.11h-21Z" transform="translate(-1.51 -8.83)" fill="#1d1d1b"/><path d="M99.29,9.47h10.86c6.79,0,11.84,2.4,11.84,8.85,0,9.07-7.38,13.06-15.44,13.06h-4.39l-2.51,12.7H92.37ZM107,25.62c5.14,0,7.77-2.47,7.77-6.23,0-2.91-2-4.17-5.78-4.17h-3.64l-2,10.4Zm-1.2,4.08L111.08,25l7.46,19h-7.67Z" transform="translate(-1.51 -8.83)" fill="#1d1d1b"/><path d="M123.51,9.47h7.62c9.66,0,15.3,4.47,15.3,13.59,0,13.65-8,21-19,21H116.58Zm3.72,28.76c6.65,0,11.74-4.62,11.74-14.71,0-5.74-3.18-8.21-8-8.21h-1.35L125,38.23Z" transform="translate(-1.51 -8.83)" fill="#1d1d1b"/><path d="M148.78,9.47h7.28l-6.92,34.61h-7.28Z" transform="translate(-1.51 -8.83)" fill="#1d1d1b"/><path d="M151.52,30.23c0-12,8-21.4,18.95-21.4a10.51,10.51,0,0,1,9.64,5.5l-5,3.82a5.68,5.68,0,0,0-5.06-3C163.68,15.11,159,22,159,29.73c0,5.33,2.09,8.79,7.48,8.79a6.61,6.61,0,0,0,3.8-1.2l1.46-6.81H166l1.11-5.93h12.08L176,41.12a17.84,17.84,0,0,1-10.8,3.59C156.67,44.71,151.52,39.33,151.52,30.23Z" transform="translate(-1.51 -8.83)" fill="#1d1d1b"/><path d="M182,9.47h7.28l-6.92,34.61h-7.28Z" transform="translate(-1.51 -8.83)" fill="#1d1d1b"/><path d="M195.25,15.59h-9.1l1.2-6.12h25.48l-1.2,6.12h-9.1l-5.64,28.49h-7.28Z" transform="translate(-1.51 -8.83)" fill="#1d1d1b"/><path d="M214,9.47h8.68l3.49,34.61H218.5l-.88-18.76c-.16-3.4-.35-6.65-.42-10.28H217c-1.52,3.56-2.85,6.84-4.47,10.28l-8.84,18.76h-8Zm-7.9,20.41h15.83l-1.28,5.5H204.76Z" transform="translate(-1.51 -8.83)" fill="#1d1d1b"/><path d="M229.08,9.47h7.28L230.63,38h13.13l-1.2,6.11H222.15Z" transform="translate(-1.51 -8.83)" fill="#1d1d1b"/></g></g></svg>